# xmcd
#
# Track frame offsets: 
#        150
#        14439
#        24120
#        37934
#        48031
#        63202
#        76518
#        90445
#        103778
#        116489
#        125833
#        136357
#        145784
#        160382
#        173916
#        186215
#        196306
#
# Disc length: 2775 seconds
#
# Revision: 0
# Processed by: cddbd v1.5.2PL0 Copyright (c) Steve Scherf et al.
# Submitted via: ExactAudioCopy v1.3
#
DISCID=d20ad511
DTITLE=B. J. Thomas - I'm So Lonesome I Could Cry
DYEAR=1966
DGENRE=Country
TTITLE0=I'm So Lonesome I Could Cry
TTITLE1=It's Not Unusual
TTITLE2=Bring Back The Time
TTITLE3=Midnight Hour
TTITLE4=The Titles Tell
TTITLE5=There'll Be No Teardrops Tonight
TTITLE6=I Wonder
TTITLE7=Hey Girl
TTITLE8=Mama
TTITLE9=Wendy
TTITLE10=Terri
TTITLE11=Maria
TTITLE12=Billy And Sue
TTITLE13=Tomorrow Never Comes
TTITLE14=Plain Jane
TTITLE15=I Don't Have A Mind Of My Own
TTITLE16=I Can't Help It (If I'm Still In Love With You)
EXTD=
EXTT0=
EXTT1=
EXTT2=
EXTT3=
EXTT4=
EXTT5=
EXTT6=
EXTT7=
EXTT8=
EXTT9=
EXTT10=
EXTT11=
EXTT12=
EXTT13=
EXTT14=
EXTT15=
EXTT16=
PLAYORDER=
